<svg width="120" height="28" viewBox="0 0 120 28" fill="none" xmlns="http://www.w3.org/2000/svg">
<path fill-rule="evenodd" clip-rule="evenodd" d="M23.0489 2.3189C23.0489 3.59959 22.0107 4.6378 20.73 4.6378C19.4493 4.6378 18.4111 3.59959 18.4111 2.3189C18.4111 1.03821 19.4493 0 20.73 0C22.0107 0 23.0489 1.03821 23.0489 2.3189ZM16.6587 3.24214C16.6587 2.97887 16.5001 2.74148 16.2568 2.64088C16.0138 2.54011 15.7337 2.59586 15.5478 2.78176L5.97213 12.3575L5.97212 8.51583C5.97209 8.35394 5.87447 8.20792 5.72493 8.14583C5.57526 8.08388 5.40297 8.11818 5.2885 8.23265L0.117281 13.4039C0.00281169 13.5183 -0.0314845 13.6906 0.030463 13.8403C0.0924105 13.99 0.238426 14.0876 0.400464 14.0875L4.92125 14.0875L4.92123 26.5221C4.92122 26.7853 5.07979 27.0227 5.32288 27.1236C5.56625 27.2242 5.84592 27.1686 6.0321 26.9824L15.3569 17.6577L15.3568 26.5223C15.3568 26.7855 15.5154 27.0229 15.7585 27.1238C16.0019 27.2244 16.2815 27.1688 16.4677 26.9827L26.9035 16.5468C27.0258 16.4246 27.0944 16.2591 27.0943 16.0865L27.0943 3.24236C27.0943 2.97909 26.9358 2.7417 26.6924 2.6411C26.4494 2.54033 26.1693 2.59608 25.9834 2.78198L16.6587 12.1067L16.6587 3.24214ZM16.0076 26.5225L16.0075 17.007L16.0078 17.0067L16.0079 26.5222L16.0076 26.5225ZM26.4436 3.24212V3.24252L16.6587 13.0274V13.027L26.4436 3.24212ZM16.0078 13.6783V13.6779L16.0075 13.6782L16.0075 16.0867L16.0078 16.0865L16.0078 13.8377L16.0078 13.6783ZM16.008 3.24191L16.0078 12.7576L16.0073 12.7582L16.0074 3.24249L16.008 3.24191ZM15.3569 16.7374V16.7371L5.57195 26.522V26.5223L15.3569 16.7374ZM5.57165 8.5158V8.51586L0.400498 13.687H0.400432L5.57165 8.5158Z" fill="#3077E3"/>
<path d="M33.8516 6.25983H37.6202L41.6005 15.9706H41.7698L45.7501 6.25983H49.5187V20.7131H46.5547V11.3058H46.4347L42.6943 20.6426H40.676L36.9356 11.2705H36.8156V20.7131H33.8516V6.25983Z" fill="#3C3C3C"/>
<path d="M56.0828 20.9249C54.9866 20.9249 54.0385 20.692 53.2387 20.2262C52.4436 19.7557 51.8296 19.1017 51.3967 18.2643C50.9639 17.4221 50.7475 16.4458 50.7475 15.3355C50.7475 14.2157 50.9639 13.2371 51.3967 12.3997C51.8296 11.5575 52.4436 10.9035 53.2387 10.4377C54.0385 9.96725 54.9866 9.73201 56.0828 9.73201C57.179 9.73201 58.1247 9.96725 58.9198 10.4377C59.7196 10.9035 60.336 11.5575 60.7688 12.3997C61.2017 13.2371 61.4181 14.2157 61.4181 15.3355C61.4181 16.4458 61.2017 17.4221 60.7688 18.2643C60.336 19.1017 59.7196 19.7557 58.9198 20.2262C58.1247 20.692 57.179 20.9249 56.0828 20.9249ZM56.0969 18.596C56.5956 18.596 57.012 18.4548 57.346 18.1725C57.6801 17.8855 57.9318 17.495 58.1012 17.001C58.2752 16.507 58.3623 15.9448 58.3623 15.3143C58.3623 14.6839 58.2752 14.1216 58.1012 13.6276C57.9318 13.1336 57.6801 12.7431 57.346 12.4561C57.012 12.1691 56.5956 12.0256 56.0969 12.0256C55.5935 12.0256 55.17 12.1691 54.8266 12.4561C54.4878 12.7431 54.2314 13.1336 54.0573 13.6276C53.888 14.1216 53.8033 14.6839 53.8033 15.3143C53.8033 15.9448 53.888 16.507 54.0573 17.001C54.2314 17.495 54.4878 17.8855 54.8266 18.1725C55.17 18.4548 55.5935 18.596 56.0969 18.596Z" fill="#3C3C3C"/>
<path d="M65.5844 14.4463V20.7131H62.578V9.87316H65.4433V11.7857H65.5703C65.8103 11.1552 66.2125 10.6565 66.7771 10.2895C67.3417 9.91785 68.0262 9.73201 68.8308 9.73201C69.5836 9.73201 70.2399 9.89668 70.7998 10.226C71.3596 10.5554 71.7948 11.0258 72.1054 11.6375C72.4159 12.2444 72.5711 12.9689 72.5711 13.8111V20.7131H69.5647V14.3475C69.5694 13.6841 69.4001 13.1666 69.0566 12.7949C68.7132 12.4185 68.2403 12.2303 67.6381 12.2303C67.2335 12.2303 66.8759 12.3173 66.5654 12.4914C66.2596 12.6655 66.0196 12.9195 65.8456 13.2536C65.6762 13.5829 65.5891 13.9805 65.5844 14.4463Z" fill="#3C3C3C"/>
<path d="M79.9115 9.87316V12.1315H73.3835V9.87316H79.9115ZM74.8655 7.27608H77.8719V17.3821C77.8719 17.6597 77.9143 17.8761 77.999 18.0314C78.0837 18.1819 78.2013 18.2878 78.3518 18.349C78.5071 18.4101 78.6859 18.4407 78.8882 18.4407C79.0293 18.4407 79.1705 18.4289 79.3116 18.4054C79.4528 18.3772 79.561 18.356 79.6363 18.3419L80.1091 20.5791C79.9585 20.6261 79.7468 20.6802 79.4739 20.7414C79.2011 20.8072 78.8694 20.8472 78.4789 20.8613C77.7543 20.8896 77.1192 20.7931 76.5734 20.572C76.0323 20.3509 75.6113 20.0074 75.3101 19.5416C75.009 19.0759 74.8608 18.4877 74.8655 17.7773V7.27608Z" fill="#3C3C3C"/>
<path d="M81.075 20.7131V9.87316H83.9896V11.7645H84.1025C84.3001 11.0917 84.6318 10.5836 85.0976 10.2401C85.5634 9.89197 86.0997 9.7179 86.7067 9.7179C86.8572 9.7179 87.0195 9.7273 87.1936 9.74612C87.3677 9.76494 87.5206 9.79082 87.6524 9.82375V12.4914C87.5112 12.4491 87.316 12.4114 87.0666 12.3785C86.8172 12.3456 86.5891 12.3291 86.382 12.3291C85.9398 12.3291 85.5446 12.4255 85.1964 12.6184C84.853 12.8066 84.5801 13.0701 84.3778 13.4089C84.1802 13.7476 84.0814 14.1381 84.0814 14.5804V20.7131H81.075Z" fill="#3C3C3C"/>
<path d="M91.1924 20.9178C90.5007 20.9178 89.8844 20.7978 89.3433 20.5579C88.8023 20.3132 88.3741 19.9533 88.0589 19.4781C87.7484 18.9982 87.5931 18.4007 87.5931 17.6856C87.5931 17.0833 87.7037 16.5776 87.9248 16.1683C88.146 15.7589 88.4471 15.4296 88.8282 15.1802C89.2093 14.9309 89.6421 14.7427 90.1267 14.6156C90.616 14.4886 91.1288 14.3992 91.6652 14.3475C92.2956 14.2816 92.8038 14.2204 93.1896 14.164C93.5754 14.1028 93.8553 14.0134 94.0294 13.8958C94.2035 13.7782 94.2905 13.6041 94.2905 13.3736V13.3312C94.2905 12.8843 94.1494 12.5385 93.8671 12.2938C93.5895 12.0492 93.1943 11.9268 92.6814 11.9268C92.1404 11.9268 91.7099 12.0468 91.39 12.2867C91.07 12.522 90.8583 12.8184 90.7548 13.176L87.9742 12.9501C88.1154 12.2915 88.393 11.7222 88.807 11.2423C89.221 10.7577 89.755 10.386 90.409 10.1272C91.0677 9.86375 91.8299 9.73201 92.6956 9.73201C93.2978 9.73201 93.8741 9.80258 94.4246 9.94373C94.9798 10.0849 95.4714 10.3036 95.8996 10.6001C96.3324 10.8965 96.6735 11.2776 96.9229 11.7433C97.1722 12.2044 97.2969 12.7572 97.2969 13.4018V20.7131H94.4458V19.2099H94.3611C94.187 19.5487 93.9541 19.8474 93.6624 20.1062C93.3707 20.3603 93.0202 20.5602 92.6109 20.7061C92.2015 20.8472 91.7287 20.9178 91.1924 20.9178ZM92.0533 18.843C92.4956 18.843 92.8861 18.7559 93.2248 18.5818C93.5636 18.4031 93.8294 18.1631 94.0223 17.862C94.2152 17.5609 94.3117 17.2198 94.3117 16.8387V15.6884C94.2176 15.7495 94.0882 15.806 93.9235 15.8577C93.7636 15.9048 93.5824 15.9495 93.3801 15.9918C93.1778 16.0295 92.9755 16.0647 92.7732 16.0977C92.5709 16.1259 92.3874 16.1518 92.2227 16.1753C91.8699 16.2271 91.5617 16.3094 91.2982 16.4223C91.0347 16.5352 90.8301 16.6881 90.6842 16.881C90.5384 17.0692 90.4655 17.3045 90.4655 17.5868C90.4655 17.9961 90.6137 18.309 90.9101 18.5254C91.2112 18.7371 91.5923 18.843 92.0533 18.843Z" fill="#3C3C3C"/>
<path d="M103.732 20.9249C102.622 20.9249 101.667 20.6896 100.867 20.2191C100.072 19.7439 99.4602 19.0853 99.032 18.2431C98.6086 17.4009 98.3969 16.4317 98.3969 15.3355C98.3969 14.2251 98.6109 13.2512 99.0391 12.4138C99.4719 11.5716 100.086 10.9153 100.881 10.4448C101.676 9.9696 102.622 9.73201 103.718 9.73201C104.664 9.73201 105.492 9.90374 106.202 10.2472C106.913 10.5906 107.475 11.0729 107.889 11.6939C108.303 12.315 108.531 13.0442 108.573 13.8817H105.736C105.656 13.3406 105.445 12.9054 105.101 12.5761C104.763 12.242 104.318 12.075 103.767 12.075C103.302 12.075 102.895 12.2021 102.547 12.4561C102.203 12.7055 101.935 13.0701 101.742 13.55C101.549 14.0299 101.453 14.6109 101.453 15.2931C101.453 15.9848 101.547 16.5729 101.735 17.0575C101.928 17.5421 102.198 17.9114 102.547 18.1655C102.895 18.4195 103.302 18.5466 103.767 18.5466C104.111 18.5466 104.419 18.476 104.692 18.3348C104.97 18.1937 105.198 17.989 105.377 17.7209C105.56 17.448 105.68 17.121 105.736 16.7399H108.573C108.526 17.5679 108.301 18.2972 107.896 18.9276C107.496 19.5534 106.943 20.0427 106.238 20.3956C105.532 20.7484 104.697 20.9249 103.732 20.9249Z" fill="#3C3C3C"/>
<path d="M112.428 17.5938L112.435 13.9876H112.872L116.344 9.87316H119.795L115.13 15.3214H114.418L112.428 17.5938ZM109.703 20.7131V6.25983H112.71V20.7131H109.703ZM116.478 20.7131L113.288 15.9918L115.293 13.8676L120 20.7131H116.478Z" fill="#3C3C3C"/>
</svg>
